<?xml version="1.0" encoding="utf-8"?>
<!-- Generator: Adobe Illustrator 19.0.1, SVG Export Plug-In . SVG Version: 6.00 Build 0)  -->
<svg version="1.1" id="Layer_1" xmlns="http://www.w3.org/2000/svg" xmlns:xlink="http://www.w3.org/1999/xlink" x="0px" y="0px"
	 viewBox="0 0 155 155" style="enable-background:new 0 0 155 155;" xml:space="preserve">
<style type="text/css">
	.st0{fill:#FFFFFF;}
</style>
<g>
	<path class="st0" d="M147.7,105.1c3.4-8.6,5.3-17.9,5.3-27.6c0-34.6-23.5-63.8-55.5-72.4L147.7,105.1z"/>
	<path class="st0" d="M65.2,3.6C29.9,9.7,3.1,40.5,3.1,77.4c0,11,2.4,21.5,6.7,31L65.2,3.6z"/>
	<polygon class="st0" points="80.9,32.6 56.4,84.4 103.3,84.4 	"/>
	<path class="st0" d="M113.4,107.1l-57-22.7l-22.8,53.3c12.4,9.2,27.8,14.6,44.5,14.6c18,0,34.6-6.4,47.5-17L113.4,107.1z"/>
</g>
</svg>
